<svg xmlns="http://www.w3.org/2000/svg" viewBox="0 8.449999809265137 353.29998779296875 61.60000228881836" data-asc="1.13" width="353.29998779296875" height="61.60000228881836"><defs/><g fill="#202020"><g transform="translate(0, 0)"><path d="M68.90 70.05Q66.65 70.05 64.90 68.82Q63.15 67.60 62.18 65.40Q61.20 63.20 61.20 60.40Q61.20 57.60 62.08 54.55Q62.95 51.50 64.35 48.45Q65.75 45.40 67.38 42.57Q69 39.75 70.58 37.40Q72.15 35.05 73.35 33.45Q75.20 30.90 77.58 28.12Q79.95 25.35 82.70 22.90Q85.45 20.45 88.50 18.92Q91.55 17.40 94.75 17.40Q96.70 17.40 97.70 17.80Q98.70 18.20 98.70 19.05Q98.70 19.65 97.88 20.00Q97.05 20.35 95.70 20.35Q92.15 20.35 88.43 19.22Q84.70 18.10 80.68 16.45Q76.65 14.80 72.30 13.15Q67.95 11.50 63.18 10.37Q58.40 9.25 53.15 9.25Q47.55 9.25 43.13 10.57Q38.70 11.90 35.63 14.12Q32.55 16.35 30.95 19.05Q29.35 21.75 29.35 24.50Q29.35 27.45 31.15 30.12Q32.95 32.80 36.60 34.45Q40.25 36.10 45.75 36.10Q50.15 36.10 53.13 34.62Q56.10 33.15 57.63 30.92Q59.15 28.70 59.15 26.45Q59.15 24.70 58.23 23.20Q57.30 21.70 55.38 20.77Q53.45 19.85 50.50 19.85Q48.10 19.85 46.03 20.45Q43.95 21.05 42.55 22.10L42.15 21.75Q43.65 20.60 45.85 19.97Q48.05 19.35 50.50 19.35Q53.60 19.35 55.63 20.35Q57.65 21.35 58.65 22.92Q59.65 24.50 59.65 26.35Q59.65 28.75 58.08 31.12Q56.50 33.50 53.40 35.05Q50.30 36.60 45.70 36.60Q40 36.60 36.23 34.82Q32.45 33.05 30.58 30.22Q28.70 27.40 28.70 24.25Q28.70 21.40 30.30 18.60Q31.90 15.80 35 13.50Q38.10 11.20 42.58 9.82Q47.05 8.45 52.75 8.45Q57.95 8.45 62.73 9.60Q67.50 10.75 71.92 12.42Q76.35 14.10 80.43 15.77Q84.50 17.45 88.28 18.60Q92.05 19.75 95.55 19.75Q96.70 19.75 97.23 19.52Q97.75 19.30 97.75 18.90Q97.75 18.50 97.05 18.22Q96.35 17.95 95.10 17.95Q91.65 17.95 88.48 19.57Q85.30 21.20 82.50 23.82Q79.70 26.45 77.25 29.60Q74.80 32.75 72.75 35.85Q70.15 39.75 67.92 44.12Q65.70 48.50 64.33 52.77Q62.95 57.05 62.95 60.75Q62.95 63.10 63.60 65.13Q64.25 67.15 65.58 68.38Q66.90 69.60 68.90 69.60Q69.95 69.60 70.73 69.25Q71.50 68.90 72.15 68.25L72.25 68.70Q71.60 69.35 70.80 69.70Q70 70.05 68.90 70.05M27.25 68.40Q21.35 68.40 16.38 66.70Q11.40 65 7.73 61.90Q4.05 58.80 2.02 54.62Q0 50.45 0 45.50Q0 40.35 2.15 35.95Q4.30 31.55 8.20 28.30Q12.10 25.05 17.38 23.25Q22.65 21.45 28.85 21.45Q35.25 21.45 40.18 23.55Q45.10 25.65 47.70 29.50L47.35 29.85Q44.80 26.05 40.02 24.00Q35.25 21.95 28.85 21.95Q22.75 21.95 17.58 23.70Q12.40 25.45 8.57 28.62Q4.75 31.80 2.63 36.10Q0.50 40.40 0.50 45.50Q0.50 50.35 2.50 54.45Q4.50 58.55 8.10 61.55Q11.70 64.55 16.58 66.22Q21.45 67.90 27.25 67.90Q32.35 67.90 36.70 66.67Q41.05 65.45 44.28 63.25Q47.50 61.05 49.30 58.07Q51.10 55.10 51.10 51.60Q51.10 48.00 48.65 45.22Q46.20 42.45 41.90 40.85Q37.60 39.25 32.10 39.25Q27.40 39.25 24.50 40.67Q21.60 42.10 21.60 44.35Q21.60 48.35 28.30 48.35Q31.05 48.35 33.73 47.62Q36.40 46.90 38.55 45.57Q40.70 44.25 42 42.45Q43.30 40.65 43.30 38.40Q43.30 36.20 42.03 34.65Q40.75 33.10 38.75 32.15Q36.75 31.20 34.50 30.77Q32.25 30.35 30.30 30.35Q25.80 30.35 22.18 31.55Q18.55 32.75 15.98 34.82Q13.40 36.90 12 39.55Q10.60 42.20 10.60 45.10Q10.60 48.60 12.48 51.22Q14.35 53.85 17.73 55.30Q21.10 56.75 25.65 56.75Q29.35 56.75 32.75 55.87Q36.15 55.00 39.50 53.27Q42.85 51.55 46.35 48.97Q49.85 46.40 53.73 42.97Q57.60 39.55 62.08 35.27Q66.55 31.00 71.85 25.90Q72.80 25.00 74.70 23.57Q76.60 22.15 79.20 20.75Q81.80 19.35 84.80 18.60L86.10 18.85Q82.90 19.50 80.15 20.92Q77.40 22.35 75.35 23.85Q73.30 25.35 72.15 26.35Q69.30 28.90 66.58 32.15Q63.85 35.40 61.13 38.85Q58.40 42.30 55.53 45.55Q52.65 48.80 49.50 51.35Q46.75 53.55 43.20 55.32Q39.65 57.10 35.63 58.15Q31.60 59.20 27.35 59.20Q21.45 59.20 17.63 57.27Q13.80 55.35 11.95 52.15Q10.10 48.95 10.10 45.10Q10.10 42.10 11.50 39.35Q12.90 36.60 15.55 34.47Q18.20 32.35 21.95 31.10Q25.70 29.85 30.35 29.85Q32.15 29.85 34.45 30.27Q36.75 30.70 38.90 31.70Q41.05 32.70 42.43 34.37Q43.80 36.05 43.80 38.50Q43.80 40.85 42.45 42.75Q41.10 44.65 38.83 46.00Q36.55 47.35 33.83 48.07Q31.10 48.80 28.30 48.85Q21.10 48.85 21.10 44.35Q21.10 41.85 24.15 40.30Q27.20 38.75 32.10 38.75Q37.75 38.75 42.15 40.40Q46.55 42.05 49.08 44.95Q51.60 47.85 51.60 51.60Q51.60 55.20 49.78 58.25Q47.95 61.30 44.65 63.57Q41.35 65.85 36.90 67.13Q32.45 68.40 27.25 68.40M51.15 43.30L51.45 42.75L74.05 42.75L74.05 43.30L51.15 43.30ZM71.50 56.85Q69.85 56.85 69.85 54.30Q69.85 52.60 70.85 50.70Q71.85 48.80 73.55 47.02Q75.25 45.25 77.35 43.80Q79.45 42.35 81.68 41.50Q83.90 40.65 85.90 40.65Q87.60 40.65 87.60 41.95Q87.60 43.15 86.05 45.02Q84.50 46.90 82.15 49.35Q80.30 51.25 78.25 52.97Q76.20 54.70 74.43 55.77Q72.65 56.85 71.50 56.85M71.55 56.50Q72.50 56.50 74.13 55.55Q75.75 54.60 77.78 52.92Q79.80 51.25 81.90 49.10Q84.25 46.65 85.70 44.87Q87.15 43.10 87.15 42.00Q87.15 41.15 86.05 41.15Q85.05 41.15 83.53 41.95Q82 42.75 80.28 44.07Q78.55 45.40 76.85 47.00Q75.15 48.60 73.75 50.25Q72.35 51.90 71.50 53.32Q70.65 54.75 70.65 55.70Q70.65 56.50 71.55 56.50M91.85 48.05L91.40 48.55Q89.35 50.90 87.23 52.82Q85.10 54.75 83.33 55.85Q81.55 56.95 80.50 56.95Q79.95 56.95 79.53 56.52Q79.10 56.10 79.10 55.45Q79.10 53.75 80.95 50.90Q82.80 48.05 86.10 44.65L86.35 44.65L89.35 41.35L93.20 41.35Q92.30 41.85 91.35 42.60Q90.40 43.35 89.55 44.20Q85.85 47.90 83.73 50.12Q81.60 52.35 80.70 53.60Q79.80 54.85 79.80 55.65Q79.80 56.65 80.60 56.65Q81.50 56.65 83.10 55.62Q84.70 54.60 86.73 52.80Q88.75 51.00 90.80 48.70L91.35 48.05L91.85 48.05ZM100.90 41.10Q101.50 41.10 102.18 41.62Q102.85 42.15 102.85 43.35Q102.85 44.80 101.80 46.20Q100.75 47.60 99.23 48.87Q97.70 50.15 96.15 51.35Q94.60 52.55 93.55 53.62Q92.50 54.70 92.50 55.70Q92.50 56.20 92.93 56.42Q93.35 56.65 93.55 56.65Q94.60 56.65 96.43 55.55Q98.25 54.45 100.35 52.67Q102.45 50.90 104.30 48.95L104.35 49.85Q102.55 51.75 100.43 53.37Q98.30 55.00 96.45 55.97Q94.60 56.95 93.50 56.95Q92.75 56.95 92.30 56.45Q91.85 55.95 91.85 55.15Q91.85 53.55 92.83 52.10Q93.80 50.65 95.25 49.30Q96.70 47.95 98.18 46.72Q99.65 45.50 100.63 44.37Q101.60 43.25 101.60 42.15Q101.60 41.40 100.85 41.40Q100.10 41.40 98.68 42.22Q97.25 43.05 95.60 44.40Q93.95 45.75 92.45 47.40L91.85 48.05L91.35 48.05L91.95 47.40Q94.55 44.50 96.98 42.80Q99.40 41.10 100.90 41.10M112.10 48.55Q110.20 50.70 108.45 51.95Q106.70 53.20 105.45 53.20Q103.45 53.20 103.45 50.70Q103.45 49.65 104.30 48.07Q105.15 46.50 106.63 44.72Q108.10 42.95 109.90 41.35L112.85 41.35Q110.45 43.30 108.50 45.35Q106.55 47.40 105.38 49.02Q104.20 50.65 104.20 51.45Q104.20 52.25 104.55 52.55Q104.90 52.85 105.50 52.85Q106.60 52.85 108.18 51.72Q109.75 50.60 111.45 48.70L112.00 48.05L112.55 48.05L112.10 48.55ZM110.85 56.85Q109.20 56.85 109.20 54.30Q109.20 52.60 110.20 50.70Q111.20 48.80 112.90 47.02Q114.60 45.25 116.70 43.80Q118.80 42.35 121.03 41.50Q123.25 40.65 125.25 40.65Q126.95 40.65 126.95 41.95Q126.95 43.15 125.40 45.02Q123.85 46.90 121.50 49.35Q119.65 51.25 117.60 52.97Q115.55 54.70 113.78 55.77Q112.00 56.85 110.85 56.85M110.90 56.50Q111.85 56.50 113.48 55.55Q115.10 54.60 117.13 52.92Q119.15 51.25 121.25 49.10Q123.60 46.65 125.05 44.87Q126.50 43.10 126.50 42.00Q126.50 41.15 125.40 41.15Q124.40 41.15 122.88 41.95Q121.35 42.75 119.63 44.07Q117.90 45.40 116.20 47.00Q114.50 48.60 113.10 50.25Q111.70 51.90 110.85 53.32Q110.00 54.75 110.00 55.70Q110.00 56.50 110.90 56.50M131.20 48.05L130.75 48.55Q128.70 50.90 126.58 52.82Q124.45 54.75 122.68 55.85Q120.90 56.95 119.85 56.95Q119.30 56.95 118.88 56.52Q118.45 56.10 118.45 55.45Q118.45 53.75 120.30 50.90Q122.15 48.05 125.45 44.65L125.70 44.65L128.70 41.35L132.55 41.35Q131.65 41.85 130.70 42.60Q129.75 43.35 128.90 44.20Q125.20 47.90 123.08 50.12Q120.95 52.35 120.05 53.60Q119.15 54.85 119.15 55.65Q119.15 56.65 119.95 56.65Q120.85 56.65 122.45 55.62Q124.05 54.60 126.08 52.80Q128.10 51.00 130.15 48.70L130.70 48.05L131.20 48.05ZM131.20 48.05L130.70 48.05L131.30 47.40Q135.90 42.35 138.73 39.10Q141.55 35.85 142.45 34.55L144.60 34.55Q142.60 36.05 139.63 39.02Q136.65 42.00 131.85 47.35L131.20 48.05M132.50 56.65Q133.55 56.65 135.40 55.52Q137.25 54.40 139.40 52.60Q141.55 50.80 143.45 48.70L144.05 48.05L144.55 48.05L144.10 48.55Q142.05 50.90 139.78 52.80Q137.50 54.70 135.58 55.82Q133.65 56.95 132.45 56.95Q131.80 56.95 131.15 56.52Q130.50 56.10 130.50 55.15Q130.50 53.85 131.50 52.42Q132.50 51.00 134.00 49.50Q135.50 48.00 137.00 46.60Q138.50 45.20 139.50 44.02Q140.50 42.85 140.50 42.00Q140.50 41.10 139.40 41.10Q138.90 41.10 138.25 41.27Q137.60 41.45 136.80 41.75L137.20 41.20Q137.85 40.95 138.48 40.75Q139.10 40.55 139.80 40.55Q141.05 40.55 141.83 41.05Q142.60 41.55 142.60 42.70Q142.60 44.10 141.48 45.50Q140.35 46.90 138.68 48.25Q137.00 49.60 135.33 50.87Q133.65 52.15 132.53 53.35Q131.40 54.55 131.40 55.65Q131.40 56.65 132.50 56.65ZM189.40 36.60Q186.30 36.60 183.40 35.87Q180.50 35.15 178.18 33.65Q175.85 32.15 174.48 29.77Q173.10 27.40 173.10 24.05Q173.10 21.40 174.40 18.70Q175.70 16.00 178.30 13.77Q180.90 11.55 184.80 10.20Q188.70 8.85 193.90 8.85Q197.90 8.85 201.68 10.05Q205.45 11.25 208.83 13.00Q212.20 14.75 215.03 16.50Q217.85 18.25 220 19.42Q222.15 20.60 223.45 20.55L223.40 21.10Q221.90 21.15 219.73 20.00Q217.55 18.85 214.80 17.17Q212.05 15.50 208.80 13.80Q205.55 12.10 201.88 10.95Q198.20 9.80 194.20 9.80Q189.80 9.80 186.05 10.87Q182.30 11.95 179.50 13.87Q176.70 15.80 175.15 18.40Q173.60 21.00 173.60 24.05Q173.60 27.70 175.55 30.40Q177.50 33.10 181.08 34.60Q184.65 36.10 189.40 36.10Q193.10 36.10 196.13 34.75Q199.15 33.40 200.95 31.12Q202.75 28.85 202.75 26.05Q202.75 22.95 200.40 21.07Q198.05 19.20 194.15 19.20Q190.25 19.20 188.00 20.95L187.65 20.60Q188.85 19.65 190.55 19.17Q192.25 18.70 194.15 18.70Q198.30 18.70 200.78 20.70Q203.25 22.70 203.25 26.05Q203.25 29.00 201.40 31.40Q199.55 33.80 196.43 35.20Q193.30 36.60 189.40 36.60M206.65 36.75Q206.25 36.75 205.98 37.07Q205.70 37.40 205.70 37.95Q205.70 38.60 206.30 39.47Q206.90 40.35 208.23 40.97Q209.55 41.60 211.70 41.60Q214.80 41.60 217.43 40.45Q220.05 39.30 222.33 37.40Q224.60 35.50 226.63 33.12Q228.65 30.75 230.60 28.30Q231.80 26.75 233.43 24.85Q235.05 22.95 236.98 21.17Q238.90 19.40 241.03 18.25Q243.15 17.10 245.40 17.10Q246.70 17.10 247.55 17.60L247.30 18.10Q246.90 17.80 246.40 17.70Q245.90 17.60 245.35 17.60Q243.30 17.60 241.30 18.67Q239.30 19.75 237.45 21.42Q235.60 23.10 233.98 25.00Q232.35 26.90 231.05 28.60Q229.15 31.05 227.10 33.47Q225.05 35.90 222.73 37.85Q220.40 39.80 217.68 40.97Q214.95 42.15 211.70 42.15Q209.35 42.15 207.90 41.45Q206.45 40.75 205.78 39.77Q205.10 38.80 205.10 37.95Q205.10 37.25 205.55 36.75Q206.00 36.25 206.65 36.25Q208.25 36.25 209.05 37.75Q209.85 39.25 209.85 42.30Q209.85 44.95 209.43 47.77Q209.00 50.60 208.55 53.25Q208.10 55.90 208.10 58.15Q208.10 61.20 209.10 63.15Q210.10 65.10 212.70 65.10Q214.75 65.10 216.20 63.80L216.40 64.20Q215.60 64.80 214.75 65.17Q213.90 65.55 212.60 65.55Q209.70 65.55 208.18 63.45Q206.65 61.35 206.65 57.50Q206.65 54.95 207.25 52.07Q207.85 49.20 208.43 46.30Q209.00 43.40 209.00 40.80Q209.00 38.70 208.40 37.72Q207.80 36.75 206.65 36.75M177.75 57.70Q182.45 57.70 186.55 55.97Q190.65 54.25 194.28 51.37Q197.90 48.50 201.08 45.00Q204.25 41.50 207.03 37.92Q209.80 34.35 212.28 31.20Q214.75 28.05 216.90 25.95Q218.65 24.25 220.18 22.87Q221.70 21.50 223.30 20.55L225.90 20.55Q224.70 20.90 223.15 21.80Q221.60 22.70 220.05 23.87Q218.50 25.05 217.30 26.35Q214.85 29.10 212.78 32.50Q210.70 35.90 208.73 39.47Q206.75 43.05 204.55 46.35Q202.35 49.65 199.60 52.30Q195.55 56.25 190.23 58.22Q184.90 60.20 178.50 60.20Q172.40 60.20 168.28 58.37Q164.15 56.55 162.10 53.42Q160.05 50.30 160.05 46.35Q160.05 43.55 161.48 40.90Q162.90 38.25 165.53 36.10Q168.15 33.95 171.88 32.67Q175.60 31.40 180.15 31.40Q184.85 31.40 187.80 32.65Q190.75 33.90 192.15 35.90Q193.55 37.90 193.55 40.20Q193.55 42.15 192.50 44.15Q191.45 46.15 189.45 47.82Q187.45 49.50 184.55 50.52Q181.65 51.55 177.90 51.55Q174.70 51.55 172.75 50.75Q170.80 49.95 169.95 48.70Q169.10 47.45 169.10 46.15Q169.10 44.50 170.70 42.72Q172.30 40.95 175.55 39.72Q178.80 38.50 183.70 38.50Q187.90 38.50 191.45 39.50Q195.00 40.50 197.65 42.32Q200.30 44.15 201.75 46.60Q203.20 49.05 203.20 52.00Q203.20 54.75 201.80 57.77Q200.40 60.80 197.45 63.45Q194.50 66.10 189.88 67.75Q185.25 69.40 178.75 69.40Q172.35 69.40 167.03 67.70Q161.70 66 157.83 62.87Q153.95 59.75 151.83 55.50Q149.70 51.25 149.70 46.10Q149.70 41.00 151.83 36.72Q153.95 32.45 157.85 29.32Q161.75 26.20 167.08 24.47Q172.40 22.75 178.75 22.75Q181.45 22.75 184.33 23.22Q187.20 23.70 189.83 24.67Q192.45 25.65 194.45 27.17Q196.45 28.70 197.50 30.80L197.00 30.95Q196.00 28.90 194.05 27.45Q192.10 26.00 189.55 25.07Q187.00 24.15 184.23 23.70Q181.45 23.25 178.75 23.25Q172.50 23.25 167.28 24.92Q162.05 26.60 158.23 29.65Q154.40 32.70 152.30 36.87Q150.20 41.05 150.20 46.10Q150.20 51.10 152.30 55.30Q154.40 59.50 158.20 62.52Q162.00 65.55 167.23 67.22Q172.45 68.90 178.75 68.90Q185.15 68.90 189.68 67.27Q194.20 65.65 197.10 63.07Q200.00 60.50 201.35 57.57Q202.70 54.65 202.70 52.00Q202.70 49.20 201.28 46.82Q199.85 44.45 197.30 42.70Q194.75 40.95 191.28 40.00Q187.80 39.05 183.65 39.05Q178.90 39.05 175.78 40.20Q172.65 41.35 171.13 42.97Q169.60 44.60 169.60 46.10Q169.60 47.30 170.40 48.45Q171.20 49.60 173.03 50.32Q174.85 51.05 177.90 51.05Q181.50 51.05 184.30 50.07Q187.10 49.10 189.05 47.50Q191.00 45.90 192.03 43.97Q193.05 42.05 193.05 40.20Q193.05 38.05 191.68 36.15Q190.30 34.25 187.45 33.07Q184.60 31.90 180.15 31.90Q175.65 31.90 172.05 33.15Q168.45 34.40 165.88 36.50Q163.30 38.60 161.93 41.17Q160.55 43.75 160.55 46.35Q160.55 50.35 162.85 52.85Q165.15 55.35 169.05 56.52Q172.95 57.70 177.75 57.70ZM227.30 38.95L226.35 37.90L248.35 12.85L252.45 12.85Q251.40 13.35 249.70 14.85Q248 16.35 246.03 18.35Q244.05 20.35 242.15 22.42Q240.25 24.50 238.80 26.15L227.30 38.95M227.30 38.95L217.30 49.85L217.95 49.85L216.65 51.60L212.30 56.50L208.90 56.50Q211 54.85 213.30 52.57Q215.60 50.30 217.55 48.00L226.35 37.90L227.30 38.95M222.35 56.95Q221.65 56.95 221.10 56.32Q220.55 55.70 220.55 54.80Q220.55 53.40 221.58 51.92Q222.60 50.45 224.13 49.00Q225.65 47.55 227.20 46.20Q228.75 44.85 229.78 43.75Q230.80 42.65 230.80 41.85Q230.80 41.10 229.90 41.10Q229 41.10 227.45 42.05Q225.90 43.00 224 44.55Q222.10 46.10 220.20 47.95Q218.30 49.80 216.65 51.60L216.10 51.60Q217.75 49.75 219.73 47.85Q221.70 45.95 223.68 44.35Q225.65 42.75 227.30 41.75Q228.95 40.75 229.95 40.75Q230.70 40.75 231.30 41.25Q231.90 41.75 231.90 42.80Q231.90 44.20 230.85 45.62Q229.80 47.05 228.23 48.45Q226.65 49.85 225.08 51.17Q223.50 52.50 222.45 53.65Q221.40 54.80 221.40 55.70Q221.40 56.65 222.45 56.65Q223.45 56.65 225.28 55.52Q227.10 54.40 229.23 52.60Q231.35 50.80 233.20 48.70L233.80 48.05L234.30 48.05L233.85 48.55Q231.80 50.90 229.58 52.80Q227.35 54.70 225.43 55.82Q223.50 56.95 222.35 56.95ZM232.65 56.85Q231 56.85 231 54.30Q231 52.60 232 50.70Q233 48.80 234.70 47.02Q236.40 45.25 238.50 43.80Q240.60 42.35 242.83 41.50Q245.05 40.65 247.05 40.65Q248.75 40.65 248.75 41.95Q248.75 43.15 247.20 45.02Q245.65 46.90 243.30 49.35Q241.45 51.25 239.40 52.97Q237.35 54.70 235.58 55.77Q233.80 56.85 232.65 56.85M232.70 56.50Q233.65 56.50 235.28 55.55Q236.90 54.60 238.93 52.92Q240.95 51.25 243.05 49.10Q245.40 46.65 246.85 44.87Q248.30 43.10 248.30 42.00Q248.30 41.15 247.20 41.15Q246.20 41.15 244.68 41.95Q243.15 42.75 241.43 44.07Q239.70 45.40 238 47.00Q236.30 48.60 234.90 50.25Q233.50 51.90 232.65 53.32Q231.80 54.75 231.80 55.70Q231.80 56.50 232.70 56.50M253 48.05L252.55 48.55Q250.50 50.90 248.38 52.82Q246.25 54.75 244.48 55.85Q242.70 56.95 241.65 56.95Q241.10 56.95 240.68 56.52Q240.25 56.10 240.25 55.45Q240.25 53.75 242.10 50.90Q243.95 48.05 247.25 44.65L247.50 44.65L250.50 41.35L254.35 41.35Q253.45 41.85 252.50 42.60Q251.55 43.35 250.70 44.20Q247 47.90 244.88 50.12Q242.75 52.35 241.85 53.60Q240.95 54.85 240.95 55.65Q240.95 56.65 241.75 56.65Q242.65 56.65 244.25 55.62Q245.85 54.60 247.88 52.80Q249.90 51.00 251.95 48.70L252.50 48.05L253 48.05ZM255.10 36.85L255.10 36.40L280.85 36.40L280.85 36.85L255.10 36.85M255.35 47.25Q252.45 50.50 251.25 52.37Q250.05 54.25 250.05 55.50Q250.05 56.65 250.95 56.65Q251.90 56.65 253.10 55.90Q254.30 55.15 256.07 53.42Q257.85 51.70 260.55 48.70L261.15 48.05L261.65 48.05L261.20 48.55Q257.15 53.15 254.78 55.05Q252.40 56.95 250.80 56.95Q249.05 56.95 249.05 55.00Q249.05 51.95 252.50 48.05Q253.50 46.85 254.40 45.77Q255.30 44.70 256.45 43.42Q257.60 42.15 259.30 40.32Q261 38.50 263.60 35.75Q266.20 33.00 270 29.00Q270.85 29.00 271.95 28.85Q273.05 28.70 274.15 28.40Q272.55 29.55 269.60 32.37Q266.65 35.20 262.95 39.05Q259.25 42.90 255.35 47.25ZM258.50 56.95Q257.90 56.95 257.47 56.52Q257.05 56.10 257.05 55.45Q257.05 53.55 259.45 50.22Q261.85 46.90 267.15 41.35L271.05 41.35Q270.40 41.70 269.47 42.42Q268.55 43.15 267.40 44.20Q263.85 47.65 261.72 49.90Q259.60 52.15 258.67 53.50Q257.75 54.85 257.75 55.65Q257.75 56.65 258.55 56.65Q259.45 56.65 261.13 55.57Q262.80 54.50 264.82 52.67Q266.85 50.85 268.75 48.70L269.35 48.05L269.85 48.05L269.40 48.55Q267.25 51.00 265.13 52.90Q263 54.80 261.25 55.87Q259.50 56.95 258.50 56.95M279.50 28.90Q280.05 28.90 280.05 29.30Q280.05 29.95 279.22 30.85Q278.40 31.75 277.35 32.42Q276.30 33.10 275.50 33.10Q275 33.10 275 32.70Q275 32.10 275.82 31.20Q276.65 30.30 277.72 29.60Q278.80 28.90 279.50 28.90ZM275.35 41.35L279.25 41.35Q278.15 41.90 276.45 43.35Q274.75 44.80 272.90 46.62Q271.05 48.45 269.42 50.30Q267.80 52.15 266.77 53.62Q265.75 55.10 265.75 55.70Q265.75 56.65 266.55 56.65Q267.50 56.65 269.35 55.42Q271.20 54.20 273.55 52.05Q275.90 49.90 278.25 47.25L278.80 47.25Q274.45 51.85 271.22 54.40Q268.00 56.95 266.50 56.95Q265.90 56.95 265.57 56.55Q265.25 56.15 265.25 55.50Q265.25 54.20 266.17 52.47Q267.10 50.75 269.30 48.10Q271.50 45.45 275.35 41.35M274.95 56.95Q273.50 56.95 273.50 55.45Q273.50 53.55 275.90 50.22Q278.30 46.90 283.60 41.35L287.50 41.35Q286.85 41.70 285.92 42.37Q285.00 43.05 283.85 44.20Q280.35 47.70 278.25 49.95Q276.15 52.20 275.20 53.52Q274.25 54.85 274.25 55.65Q274.25 56.65 275.00 56.65Q275.90 56.65 277.55 55.55Q279.20 54.45 281.22 52.65Q283.25 50.85 285.20 48.70L285.80 48.05L286.30 48.05L285.85 48.55Q283.70 51.00 281.57 52.90Q279.45 54.80 277.70 55.87Q275.95 56.95 274.95 56.95M292.60 48.55Q290.75 50.70 289.12 51.95Q287.50 53.20 286.30 53.20Q284.65 53.20 284.65 50.90Q284.65 49.75 285.50 48.12Q286.35 46.50 287.80 44.72Q289.25 42.95 291.05 41.35L294.05 41.35Q291.65 43.30 289.70 45.35Q287.75 47.40 286.57 49.07Q285.40 50.75 285.40 51.70Q285.40 52.85 286.40 52.85Q287.40 52.85 288.82 51.72Q290.25 50.60 291.95 48.70L292.55 48.05L293.10 48.05L292.60 48.55ZM291.40 56.95Q290.60 56.95 290.17 56.25Q289.75 55.55 289.75 54.30Q289.75 52.60 290.75 50.70Q291.75 48.80 293.45 47.02Q295.15 45.25 297.25 43.80Q299.35 42.35 301.57 41.50Q303.80 40.65 305.80 40.65Q307.50 40.65 307.50 41.95Q307.50 43.15 305.95 45.02Q304.40 46.90 302.05 49.35Q300.20 51.30 298.15 53.02Q296.10 54.75 294.32 55.85Q292.55 56.95 291.40 56.95M291.45 56.60Q292.40 56.60 294.02 55.65Q295.65 54.70 297.65 53.00Q299.65 51.30 301.80 49.10Q304.15 46.65 305.60 44.87Q307.05 43.10 307.05 42.00Q307.05 41.15 305.95 41.15Q304.95 41.15 303.42 41.95Q301.90 42.75 300.17 44.07Q298.45 45.40 296.75 47.00Q295.05 48.60 293.65 50.25Q292.25 51.90 291.40 53.32Q290.55 54.75 290.55 55.70Q290.55 56.60 291.45 56.60M307.70 48.55Q306.05 50.40 304.55 51.42Q303.05 52.45 302.00 52.45Q300.20 52.45 300.20 50.70Q300.20 49.65 300.72 48.62Q301.25 47.60 302.55 46.10L304.95 46.10L301.90 49.50Q301.15 50.25 301.15 51.25Q301.15 52.15 302.05 52.15Q302.90 52.15 304.25 51.22Q305.60 50.30 307.05 48.70L307.65 48.05L308.15 48.05L307.70 48.55ZM334.10 32.45L331.90 32.45L349.20 12.85L353.30 12.85Q351.90 13.50 348.32 16.95Q344.75 20.40 339.65 26.15L334.10 32.45M306.50 56.85Q304.85 56.85 304.85 54.30Q304.85 52.60 305.85 50.70Q306.85 48.80 308.55 47.02Q310.25 45.25 312.35 43.80Q314.45 42.35 316.67 41.50Q318.90 40.65 320.90 40.65Q322.60 40.65 322.60 41.95Q322.60 43.15 321.05 45.02Q319.50 46.90 317.15 49.35Q315.30 51.25 313.25 52.97Q311.20 54.70 309.42 55.77Q307.65 56.85 306.50 56.85M306.55 56.50Q307.50 56.50 309.13 55.55Q310.75 54.60 312.77 52.92Q314.80 51.25 316.90 49.10Q319.25 46.65 320.70 44.87Q322.15 43.10 322.15 42.00Q322.15 41.15 321.05 41.15Q320.05 41.15 318.52 41.95Q317 42.75 315.27 44.07Q313.55 45.40 311.85 47.00Q310.15 48.60 308.75 50.25Q307.35 51.90 306.50 53.32Q305.65 54.75 305.65 55.70Q305.65 56.50 306.55 56.50M321 47.25Q318.70 49.80 317.32 51.40Q315.95 53.00 315.38 53.97Q314.80 54.95 314.80 55.65Q314.80 56.65 315.60 56.65Q316.50 56.65 318.20 55.62Q319.90 54.60 322.02 52.80Q324.15 51.00 326.30 48.70L326.90 48.05L327.40 48.05L326.95 48.55Q324.80 50.90 322.57 52.82Q320.35 54.75 318.50 55.85Q316.65 56.95 315.50 56.95Q314.95 56.95 314.52 56.52Q314.10 56.10 314.10 55.45Q314.10 53.75 315.95 50.90Q317.80 48.05 321.10 44.65L331.90 32.45L334.10 32.45L321 47.25ZM325.75 56.85Q324.10 56.85 324.10 54.30Q324.10 52.60 325.10 50.70Q326.10 48.80 327.80 47.02Q329.50 45.25 331.60 43.80Q333.70 42.35 335.92 41.50Q338.15 40.65 340.15 40.65Q341.85 40.65 341.85 41.95Q341.85 43.15 340.30 45.02Q338.75 46.90 336.40 49.35Q334.55 51.25 332.50 52.97Q330.45 54.70 328.67 55.77Q326.90 56.85 325.75 56.85M325.80 56.50Q326.75 56.50 328.38 55.55Q330 54.60 332.02 52.92Q334.05 51.25 336.15 49.10Q338.50 46.65 339.95 44.87Q341.40 43.10 341.40 42.00Q341.40 41.15 340.30 41.15Q339.30 41.15 337.77 41.95Q336.25 42.75 334.52 44.07Q332.80 45.40 331.10 47.00Q329.40 48.60 328 50.25Q326.60 51.90 325.75 53.32Q324.90 54.75 324.90 55.70Q324.90 56.50 325.80 56.50M346.10 48.05L345.65 48.55Q343.60 50.90 341.47 52.82Q339.35 54.75 337.57 55.85Q335.80 56.95 334.75 56.95Q334.20 56.95 333.77 56.52Q333.35 56.10 333.35 55.45Q333.35 53.75 335.20 50.90Q337.05 48.05 340.35 44.65L340.60 44.65L343.60 41.35L347.45 41.35Q346.55 41.85 345.60 42.60Q344.65 43.35 343.80 44.20Q340.10 47.90 337.97 50.12Q335.85 52.35 334.95 53.60Q334.05 54.85 334.05 55.65Q334.05 56.65 334.85 56.65Q335.75 56.65 337.35 55.62Q338.95 54.60 340.97 52.80Q343 51.00 345.05 48.70L345.60 48.05L346.10 48.05Z"/></g><g transform="translate(0, 88.5)"><path d=""/></g></g></svg>